# Blender v2.90.0 OBJ File: 'helicopter.blend'
# www.blender.org
mtllib Helicopter Rotor Tail.mtl
o Rotor_Tail_Cube.007
v -0.999999 0.192697 0.099072
v 1.000001 0.292697 0.074072
v -0.999999 0.292697 -0.074133
v 1.000001 0.192697 -0.099133
v -0.999999 0.149396 0.074072
v 1.000001 0.249396 0.099072
v -0.999999 0.249396 -0.099133
v 1.000001 0.149396 -0.074133
v 1.000001 0.199396 0.012469
v -0.999999 0.199396 -0.012531
v 1.000001 0.242697 -0.012531
v -0.999999 0.242697 0.012469
v 0.052050 0.246046 0.052018
v -0.052047 0.246046 0.052018
v 0.000001 0.246046 0.073577
v -0.052047 0.246046 -0.052079
v 0.052050 0.246046 -0.052079
v -0.052047 0.196046 -0.052079
v 0.052050 0.196046 -0.052079
v 0.000001 0.196046 -0.073639
v -0.052047 0.196046 0.052018
v 0.052050 0.196046 0.052018
v 0.073609 0.196046 -0.000031
v -0.073607 0.196046 -0.000031
v 0.193845 0.246046 -0.000030
v -0.193842 0.246046 -0.000030
v 0.193845 0.246046 0.099970
v 0.073609 0.246046 -0.000031
v 0.193845 0.196046 -0.100030
v 0.193845 0.196046 -0.000030
v -0.193842 0.196047 0.099970
v -0.193842 0.196047 -0.000030
v -0.193842 0.246046 -0.100030
v -0.073607 0.246046 -0.000031
v 0.000001 0.196046 0.073577
v 0.193845 0.196046 0.099970
v -0.193842 0.246046 0.099970
v -0.193842 0.196047 -0.100030
v 0.000001 0.246046 -0.073639
v 0.193845 0.246046 -0.100030
v 0.073609 0.443108 -0.000031
v 0.000001 0.443108 -0.000031
v -0.073607 0.443108 -0.000031
v 0.000001 -0.001015 0.073577
v 0.000001 0.443108 -0.073639
v 0.000001 -0.001015 -0.073639
v 0.000001 0.443108 0.073577
v -0.073607 -0.001015 -0.000031
v 0.073609 -0.001015 -0.000031
v 0.052050 0.443108 0.052018
v 0.052050 -0.001015 -0.052079
v -0.052047 -0.001015 0.052018
v -0.052047 0.443108 -0.052079
v 0.052050 -0.001015 0.052018
v -0.052047 0.443108 0.052018
v -0.052047 -0.001015 -0.052079
v 0.052050 0.443108 -0.052079
v 0.596923 0.222721 0.099521
v 0.596923 0.269372 0.087021
v 0.596923 0.219372 -0.099582
v 0.596923 0.172721 -0.087081
v 0.596923 0.244372 -0.006280
v 0.596923 0.197721 0.006220
v 0.798462 0.236059 0.099296
v 0.798462 0.281035 0.080546
v 0.798462 0.206035 -0.099357
v 0.798462 0.161059 -0.080607
v 0.798462 0.243535 -0.009405
v 0.798462 0.198559 0.009345
v -0.596920 0.219372 0.099521
v -0.596920 0.269372 -0.087081
v -0.596920 0.172721 0.087021
v -0.596920 0.222721 -0.099582
v -0.596920 0.244372 0.006220
v -0.596920 0.197721 -0.006280
v -0.798460 0.281034 -0.080607
v -0.798460 0.236058 -0.099357
v -0.798460 0.243534 0.009345
v -0.798460 0.198558 -0.009405
v -0.798460 0.206034 0.099296
v -0.798460 0.161058 0.080546
vt 0.354871 0.718998
vt 0.355140 0.688686
vt 0.358843 0.688894
vt 0.358530 0.718783
vt 0.072656 0.849799
vt 0.072650 0.819438
vt 0.080215 0.818912
vt 0.080044 0.849690
vt 0.787599 0.892424
vt 0.787599 0.888135
vt 0.802603 0.888135
vt 0.802603 0.892424
vt 0.366092 0.718681
vt 0.366086 0.688321
vt 0.373651 0.687795
vt 0.373480 0.718573
vt 0.370714 0.479865
vt 0.374521 0.479865
vt 0.374521 0.487479
vt 0.370714 0.487479
vt 0.366037 0.751143
vt 0.366037 0.754950
vt 0.358423 0.754950
vt 0.358423 0.751143
vt 0.061436 0.850116
vt 0.061704 0.819803
vt 0.065407 0.820012
vt 0.065094 0.849901
vt 0.158618 0.804105
vt 0.158594 0.819626
vt 0.150906 0.819775
vt 0.151091 0.804216
vt 0.358469 0.660314
vt 0.358284 0.675873
vt 0.354439 0.676057
vt 0.354722 0.660512
vt 0.365995 0.660203
vt 0.365972 0.675724
vt 0.787599 0.905293
vt 0.787599 0.901003
vt 0.802603 0.901003
vt 0.802603 0.905293
vt 0.787599 0.909582
vt 0.802603 0.909582
vt 0.787599 0.913872
vt 0.802603 0.913872
vt 0.783792 0.888135
vt 0.783792 0.892424
vt 0.768787 0.892424
vt 0.768787 0.888135
vt 0.147062 0.819959
vt 0.147345 0.804414
vt 0.783792 0.901003
vt 0.783792 0.905293
vt 0.768787 0.905293
vt 0.768787 0.901003
vt 0.783792 0.896714
vt 0.768787 0.896713
vt 0.783792 0.909582
vt 0.768787 0.909582
vt 0.373492 0.660094
vt 0.373651 0.675619
vt 0.166114 0.803996
vt 0.166273 0.819521
vt 0.373651 0.751143
vt 0.373651 0.754950
vt 0.370714 0.472251
vt 0.374521 0.472251
vt 0.365093 0.605176
vt 0.368915 0.603112
vt 0.373651 0.613779
vt 0.366086 0.614305
vt 0.157715 0.749078
vt 0.161537 0.747014
vt 0.166273 0.757681
vt 0.158708 0.758207
vt 0.071657 0.810309
vt 0.075479 0.808245
vt 0.365093 0.679192
vt 0.368915 0.677127
vt 0.360892 0.603957
vt 0.358843 0.614878
vt 0.355140 0.614670
vt 0.356934 0.603275
vt 0.783792 0.913872
vt 0.783792 0.918161
vt 0.787599 0.918161
vt 0.063498 0.808409
vt 0.067456 0.809090
vt 0.360892 0.677973
vt 0.356934 0.677291
vt 0.153514 0.747859
vt 0.151465 0.758781
vt 0.787599 0.896714
vt 0.147763 0.758572
vt 0.149557 0.747178
vt 0.260458 0.752141
vt 0.262603 0.746963
vt 0.267781 0.749107
vt 0.264748 0.752141
vt 0.257425 0.744818
vt 0.260458 0.741785
vt 0.264748 0.741785
vt 0.267781 0.744818
vt 0.257425 0.749108
vt 0.802603 0.918161
vt 0.783792 0.883845
vt 0.768787 0.883845
vt 0.787599 0.883845
vt 0.802603 0.883845
vt 0.802603 0.896714
vt 0.768787 0.913872
vt 0.768787 0.918161
vt 0.166102 0.788459
vt 0.158714 0.788567
vt 0.373480 0.644557
vt 0.366092 0.644665
vt 0.151152 0.788670
vt 0.147494 0.788885
vt 0.358530 0.644767
vt 0.354871 0.644983
vt 0.065033 0.865447
vt 0.072560 0.865337
vt 0.358469 0.734330
vt 0.365995 0.734219
vt 0.061287 0.865646
vt 0.373492 0.734110
vt 0.080056 0.865228
vt 0.354722 0.734528
vt 0.354439 0.750073
vt 0.358284 0.749889
vt 0.072536 0.880857
vt 0.080215 0.880752
vt 0.365972 0.749740
vt 0.373651 0.749634
vt 0.061004 0.881191
vt 0.064848 0.881006
vn 0.0209 -0.8495 0.5272
vn 0.1275 -0.7100 0.6926
vn 0.1057 0.6303 0.7691
vn -0.0247 0.5293 0.8480
vn -0.0005 -0.9740 -0.2267
vn -0.0009 -0.9979 -0.0642
vn -0.3813 -0.2667 0.8851
vn -0.5943 -0.8042 0.0000
vn -1.0000 0.0000 0.0000
vn -0.7071 0.0000 0.7071
vn -0.0005 0.9740 0.2267
vn -0.0009 0.9979 0.0642
vn 0.1275 0.7100 -0.6926
vn 0.0209 0.8495 -0.5272
vn -0.7063 0.6343 0.3143
vn -0.7063 -0.6343 -0.3143
vn -0.5673 -0.7856 0.2468
vn -0.5797 0.2383 0.7792
vn 0.7063 -0.6343 0.3143
vn 0.7063 0.6343 -0.3143
vn 0.5673 0.7856 0.2468
vn 0.5797 -0.2383 0.7792
vn 0.1057 -0.6303 -0.7691
vn -0.0247 -0.5293 -0.8480
vn -0.0021 -0.9232 0.3842
vn 0.0150 -0.3816 0.9242
vn 0.0150 0.3816 -0.9242
vn 0.5797 0.2383 -0.7792
vn 0.5673 -0.7856 -0.2468
vn -0.0301 -0.9245 -0.3800
vn -0.0021 0.9232 -0.3842
vn 0.5943 -0.8042 0.0000
vn 0.3813 -0.2667 0.8851
vn 0.7071 0.0000 0.7071
vn 1.0000 0.0000 0.0000
vn 0.3813 -0.2667 -0.8851
vn 0.7071 0.0000 -0.7071
vn 0.0000 0.0000 -1.0000
vn -0.5943 0.8042 0.0000
vn -0.3813 0.2667 0.8851
vn -0.5490 0.6302 0.5490
vn -0.7764 0.6302 0.0000
vn -0.0301 0.9245 0.3800
vn 0.3813 0.2667 0.8851
vn 0.5943 0.8042 0.0000
vn 0.7764 0.6302 0.0000
vn 0.5490 0.6302 0.5490
vn 0.0000 0.0000 1.0000
vn 0.0000 0.6302 0.7764
vn 0.3813 0.2667 -0.8851
vn 0.5490 0.6302 -0.5490
vn -0.5673 0.7856 -0.2468
vn -0.5797 -0.2383 -0.7792
vn -0.1275 0.7100 0.6926
vn 0.0009 0.9979 -0.0642
vn -0.1275 -0.7100 -0.6926
vn 0.0009 -0.9979 0.0642
vn -0.3813 0.2667 -0.8851
vn -0.1057 0.6303 -0.7691
vn -0.3813 -0.2667 -0.8851
vn -0.1057 -0.6303 0.7691
vn 0.0000 1.0000 0.0000
vn 0.0000 0.6302 -0.7764
vn -0.5490 0.6302 -0.5490
vn -0.7071 0.0000 -0.7071
vn -0.0209 -0.8495 -0.5272
vn 0.0005 -0.9740 0.2267
vn -0.0209 0.8495 0.5272
vn 0.0005 0.9740 -0.2267
vn 0.0247 -0.5293 0.8480
vn 0.0247 0.5293 -0.8480
vn -0.0150 -0.3816 -0.9242
vn 0.0021 -0.9232 -0.3842
vn -0.0150 0.3816 0.9242
vn 0.0021 0.9232 0.3842
vn 0.0301 0.9245 -0.3800
vn 0.0301 -0.9245 0.3800
usemtl Material.001
s 1
f 72/1/1 31/2/2 37/3/3 70/4/4
f 75/5/5 32/6/6 31/7/2 72/8/1
f 21/9/7 24/10/8 48/11/9 52/12/10
f 74/13/11 26/14/12 33/15/13 71/16/14
f 12/17/15 10/18/16 5/19/17 1/20/18
f 9/21/19 11/22/20 2/23/21 6/24/22
f 71/25/14 33/26/13 38/27/23 73/28/24
f 69/29/25 9/30/19 6/31/22 64/32/26
f 66/33/27 4/34/28 8/35/29 67/36/30
f 68/37/31 11/38/20 4/34/28 66/33/27
f 23/39/32 22/40/33 54/41/34 49/42/35
f 19/43/36 23/39/32 49/42/35 51/44/37
f 20/45/38 19/43/36 51/44/37 46/46/38
f 34/47/39 14/48/40 55/49/41 43/50/42
f 64/32/26 6/31/22 2/51/21 65/52/43
f 13/53/44 28/54/45 41/55/46 50/56/47
f 14/48/40 15/57/48 47/58/49 55/49/41
f 28/54/45 17/59/50 57/60/51 41/55/46
f 65/61/43 2/62/21 11/38/20 68/37/31
f 67/63/30 8/64/29 9/30/19 69/29/25
f 8/65/29 4/66/28 11/22/20 9/21/19
f 3/67/52 7/68/53 10/18/16 12/17/15
f 70/4/4 37/3/3 26/14/12 74/13/11
f 73/28/24 38/27/23 32/6/6 75/5/5
f 28/69/45 13/70/44 27/71/54 25/72/55
f 23/73/32 19/74/36 29/75/56 30/76/57
f 24/77/8 21/78/7 31/7/2 32/6/6
f 34/79/39 16/80/58 33/15/13 26/14/12
f 17/81/50 40/82/59 29/83/56 19/84/36
f 39/85/38 17/59/50 19/43/36 20/45/38
f 16/86/58 39/85/38 20/45/38 18/87/60
f 33/26/13 16/88/58 18/89/60 38/27/23
f 14/90/40 37/3/3 31/2/2 21/91/7
f 22/92/33 23/73/32 30/76/57 36/93/61
f 15/57/48 14/48/40 21/9/7 35/94/48
f 18/89/60 24/77/8 32/6/6 38/27/23
f 13/53/44 15/57/48 35/94/48 22/40/33
f 27/95/54 13/96/44 22/92/33 36/93/61
f 17/81/50 28/69/45 25/72/55 40/82/59
f 14/90/40 34/79/39 26/14/12 37/3/3
f 47/97/49 42/98/62 43/99/42 55/100/41
f 41/101/46 57/102/51 45/103/63 42/98/62
f 42/98/62 45/103/63 53/104/64 43/99/42
f 50/105/47 41/101/46 42/98/62 47/97/49
f 18/87/60 20/45/38 46/46/38 56/106/65
f 16/107/58 34/47/39 43/50/42 53/108/64
f 24/10/8 18/109/60 56/110/65 48/11/9
f 22/40/33 35/94/48 44/111/48 54/41/34
f 17/59/50 39/85/38 45/112/63 57/60/51
f 15/57/48 13/53/44 50/56/47 47/58/49
f 39/85/38 16/86/58 53/113/64 45/112/63
f 35/94/48 21/9/7 52/12/10 44/111/48
f 29/75/56 61/114/66 63/115/67 30/76/57
f 27/71/54 59/116/68 62/117/69 25/72/55
f 36/93/61 58/118/70 59/119/68 27/95/54
f 25/72/55 62/117/69 60/120/71 40/82/59
f 40/82/59 60/120/71 61/121/66 29/83/56
f 30/76/57 63/115/67 58/118/70 36/93/61
f 61/114/66 67/63/30 69/29/25 63/115/67
f 59/116/68 65/61/43 68/37/31 62/117/69
f 58/118/70 64/32/26 65/52/43 59/119/68
f 62/117/69 68/37/31 66/33/27 60/120/71
f 60/120/71 66/33/27 67/36/30 61/121/66
f 63/115/67 69/29/25 64/32/26 58/118/70
f 77/122/72 73/28/24 75/5/5 79/123/73
f 80/124/74 70/4/4 74/13/11 78/125/75
f 76/126/76 71/25/14 73/28/24 77/122/72
f 78/125/75 74/13/11 71/16/14 76/127/76
f 79/123/73 75/5/5 72/8/1 81/128/77
f 81/129/77 72/1/1 70/4/4 80/124/74
f 5/130/17 81/129/77 80/124/74 1/131/18
f 10/132/16 79/123/73 81/128/77 5/133/17
f 12/134/15 78/125/75 76/127/76 3/135/52
f 3/136/52 76/126/76 77/122/72 7/137/53
f 1/131/18 80/124/74 78/125/75 12/134/15
f 7/137/53 77/122/72 79/123/73 10/132/16
